<svg xmlns="http://www.w3.org/2000/svg" viewBox="0 0 512 512" fill="none">
<defs>
  <linearGradient id="bg" x1="54" y1="40" x2="456" y2="474" gradientUnits="userSpaceOnUse">
    <stop stop-color="#123b38"/>
    <stop offset=".5" stop-color="#071817"/>
    <stop offset="1" stop-color="#03100f"/>
  </linearGradient>
  <radialGradient id="halo" cx=".24" cy=".18" r=".86">
    <stop stop-color="#42f0cf" stop-opacity=".35"/>
    <stop offset=".58" stop-color="#21c5ae" stop-opacity=".08"/>
    <stop offset="1" stop-color="#21c5ae" stop-opacity="0"/>
  </radialGradient>
  <linearGradient id="mintA" x1="146" y1="150" x2="374" y2="246" gradientUnits="userSpaceOnUse">
    <stop stop-color="#b5fff0"/>
    <stop offset=".44" stop-color="#63f1d5"/>
    <stop offset="1" stop-color="#19b69f"/>
  </linearGradient>
  <linearGradient id="mintB" x1="138" y1="272" x2="368" y2="370" gradientUnits="userSpaceOnUse">
    <stop stop-color="#35d9c0"/>
    <stop offset=".55" stop-color="#17ad98"/>
    <stop offset="1" stop-color="#0a7468"/>
  </linearGradient>
  <filter id="shadow" x="90" y="120" width="340" height="286" filterUnits="userSpaceOnUse">
    <feDropShadow dx="0" dy="18" stdDeviation="18" flood-color="#00100e" flood-opacity=".55"/>
  </filter>
</defs>
<rect width="512" height="512" rx="116" fill="url(#bg)"/>
<rect width="512" height="512" rx="116" fill="url(#halo)"/>
<g filter="url(#shadow)">
  <path d="M160 168c0-22 18-40 40-40h152c22 0 40 18 40 40v10c0 14-8 27-21 34l-151 78c-28 14-60-6-60-37v-7c0-15 8-29 22-36l110-56H200c-22 0-40-18-40-40v-6Z" fill="url(#mintA)"/>
  <path d="M352 344c0 22-18 40-40 40H160c-22 0-40-18-40-40v-10c0-14 8-27 21-34l151-78c28-14 60 6 60 37v7c0 15-8 29-22 36l-110 56h92c22 0 40 18 40 40v6Z" fill="url(#mintB)"/>
</g>
<path d="M380 103c5.2 21.2 20.1 36.1 41.3 41.3-21.2 5.2-36.1 20.1-41.3 41.3-5.2-21.2-20.1-36.1-41.3-41.3 21.2-5.2 36.1-20.1 41.3-41.3Z" fill="#ecfffa"/>
<circle cx="112" cy="395" r="6" fill="#62e8d1" opacity=".85"/>
</svg>
