<svg xmlns="http://www.w3.org/2000/svg" viewBox="0 0 512 512">
  <defs>
    <linearGradient id="g" x1="60" y1="40" x2="450" y2="480" gradientUnits="userSpaceOnUse">
      <stop stop-color="#5df4de"/>
      <stop offset="1" stop-color="#0d988c"/>
    </linearGradient>
    <filter id="s"><feDropShadow dx="0" dy="18" stdDeviation="22" flood-color="#003d38" flood-opacity=".35"/></filter>
  </defs>
  <rect width="512" height="512" rx="118" fill="#061112"/>
  <circle cx="168" cy="142" r="128" fill="#25dac5" opacity=".12"/>
  <g filter="url(#s)">
    <path d="M118 164c0-25 20-46 46-46h184c25 0 46 21 46 46v184c0 25-21 46-46 46H164c-26 0-46-21-46-46V164Z" fill="url(#g)"/>
    <path d="M256 164c9 44 44 79 88 88-44 9-79 44-88 88-9-44-44-79-88-88 44-9 79-44 88-88Z" fill="#eafffc"/>
    <circle cx="344" cy="164" r="21" fill="#eafffc"/>
  </g>
</svg>
